<?xml version="1.0" encoding="UTF-8"?>
<!DOCTYPE svg PUBLIC "-//W3C//DTD SVG 1.1//EN" "http://www.w3.org/Graphics/SVG/1.1/DTD/svg11.dtd">
<!-- Creator: CorelDRAW 2017 -->
<svg xmlns="http://www.w3.org/2000/svg" xml:space="preserve" width="100%" height="100%" version="1.1" style="shape-rendering:geometricPrecision; text-rendering:geometricPrecision; image-rendering:optimizeQuality; fill-rule:evenodd; clip-rule:evenodd"
viewBox="0 0 21000 29700"
 xmlns:xlink="http://www.w3.org/1999/xlink">
 <defs>
  <style type="text/css">
   <![CDATA[
    .fil0 {fill:#5981AF}
   ]]>
  </style>
 </defs>
 <g id="Camada_x0020_1">
  <metadata id="CorelCorpID_0Corel-Layer"/>
  <path class="fil0" d="M8716.74 14813.91l1191.52 0 0 4501.41 -1191.52 0 0 -4501.41zm-132.4 -1191.55c0,-801.14 1456.32,-1000.34 1456.32,132.4 0,883.93 -1456.32,876.84 -1456.32,-132.4zm2383.11 2250.7c0,1761.92 1425.24,2912.68 2383.1,2912.68 3061.3,0 2115.41,-740.22 3309.85,-1059.15l238.31 291.27c-164.49,727.58 -1537.72,1429.86 -2356.61,1429.86 -1299.9,0 -2231.9,62.83 -3216.78,-887.49 -1354.13,-1306.62 -1476.66,-4063.89 3.68,-5370.66 1770.59,-1562.98 5185.38,-973.28 5596.17,565.19l-291.26 238.31c-999.74,-228.36 -172.9,-1032.69 -3018.59,-1032.69 -1528.42,0 -2647.87,1339.94 -2647.87,2912.68zm-4369.04 -2912.68c-1187.73,0 -1833.68,67.7 -2687.06,887.61 -1686.38,1620.17 -1277.04,4473.74 978.95,5454.31 1089.96,473.76 1132.03,93.29 2207.51,308 993.47,198.3 1831.91,1467.92 4266.81,-162.58 1908.73,1009.99 3827.15,1287.74 5529.03,-428.73 3385.21,-3414.22 -164.49,-7382.56 -2086.78,-7382.56 -1525.63,0 -1868.73,-162.92 -3177.45,529.61 -423.03,-799.45 -1161.75,-1721.13 -2250.74,-1721.13 -1521.47,0 -2746.84,1014.98 -2780.27,2515.47z"/>
 </g>
</svg>
